<svg xmlns="http://www.w3.org/2000/svg" viewBox="0 0 512 512">
  <defs>
    <linearGradient id="bg" x1="0%" x2="100%" y1="0%" y2="100%">
      <stop offset="0%" stop-color="#14b8a6"/>
      <stop offset="100%" stop-color="#0f766e"/>
    </linearGradient>
  </defs>
  <rect width="512" height="512" rx="110" fill="url(#bg)"/>
  <circle cx="392" cy="120" r="42" fill="#fb923c" opacity="0.95"/>
  <path fill="#ffffff" d="M148 118h176c31 0 56 25 56 56v188c0 31-25 56-56 56H148c-31 0-56-25-56-56V174c0-31 25-56 56-56Zm0 36c-11 0-20 9-20 20v188c0 11 9 20 20 20h176c11 0 20-9 20-20V174c0-11-9-20-20-20H148Zm87 44c10 0 18 8 18 18v34h34c10 0 18 8 18 18s-8 18-18 18h-34v34c0 10-8 18-18 18s-18-8-18-18v-34h-34c-10 0-18-8-18-18s8-18 18-18h34v-34c0-10 8-18 18-18Zm-35-123c0-13 10-23 23-23h26c13 0 23 10 23 23v24h-72V75Z"/>
</svg>
