<svg xmlns="http://www.w3.org/2000/svg" viewBox="0 0 180 180">
  <defs>
    <linearGradient id="bg" x1="0%" x2="100%" y1="0%" y2="100%">
      <stop offset="0%" stop-color="#14b8a6"/>
      <stop offset="100%" stop-color="#115e59"/>
    </linearGradient>
  </defs>
  <rect width="180" height="180" rx="40" fill="url(#bg)"/>
  <rect x="42" y="42" width="96" height="96" rx="24" fill="#ffffff"/>
  <rect x="64" y="24" width="52" height="22" rx="10" fill="#ffffff"/>
  <path fill="#0f766e" d="M90 63c5 0 9 4 9 9v17h17c5 0 9 4 9 9s-4 9-9 9H99v17c0 5-4 9-9 9s-9-4-9-9v-17H64c-5 0-9-4-9-9s4-9 9-9h17V72c0-5 4-9 9-9Z"/>
</svg>
